# xmcd CD database file
# Copyright (C) 1995-1998 Ti Kan
#
# Track frame offsets:
#	150
#	27487
#	45970
#	68215
#	87328
#	103312
#	120457
#	136607
#	158990
#	171826
#	185570
#	199160
#	221018
#	237623
#	251193
#	264501
#
# Disc length: 3787 seconds
#
# Revision: 1
# Processed by: cddbd v1.4PL0 Copyright (c) Steve Scherf et al.
# Submitted via: CDex 1.30Release
#
DISCID=eb0ec910
DTITLE=Roy C and Touch - Stella lost her groove again
DYEAR=1998
DGENRE=Blues
TTITLE0=Stella lost her groove her again
TTITLE1=I found a love
TTITLE2=Down on me 
TTITLE3=I'm falling in love again
TTITLE4=Iwasn't there
TTITLE5=Since i met you baby
TTITLE6=I'll never Leave You Lonely
TTITLE7=Change Is Gonna Come
TTITLE8=Funky Funk Part Two
TTITLE9=Why Did You Fall In Love With Me?
TTITLE10=I'm So Proud of You
TTITLE11=I'm So Lonely
TTITLE12=Merry Black Christmas
TTITLE13=Blank Mind - Instrumental
TTITLE14=Going Down For The Last Time - Instrumental
TTITLE15=I found a Love - Instrumental
EXTD=YEAR: 1998 ID3G:   0
EXTT0=
EXTT1=
EXTT2=
EXTT3=
EXTT4=
EXTT5=
EXTT6=
EXTT7=
EXTT8=
EXTT9=
EXTT10=
EXTT11=
EXTT12=
EXTT13=
EXTT14=
EXTT15=
PLAYORDER=
